<?xml version="1.0" encoding="UTF-8"?>
<svg id="Calque_1" data-name="Calque 1" xmlns="http://www.w3.org/2000/svg" viewBox="0 0 680.42 202.44">
  <defs>
    <style>
      .cls-1 {
        fill: #fbea2e;
      }
    </style>
  </defs>
  <g>
    <path class="cls-1" d="M134.61,193.04c-1.54-2.82-1.43-5.44-.38-7.86l9.25-4.07c1.85-.81,2.9-4.4,3.99-6.08,4.14-6.4,7.98-12.65,10.11-19.9,6.64-22.7-.78-40.21-11.64-59.4l-5.45-9.64c-.87-1.54-2.99-2.15-1.74-4.26.95-1.61,2.15-1.95,4.34-1.58s5.33-.24,7.59.32c9.65,2.4,17.52,8.41,23.51,16.46,8.02,10.78,11.62,24.1,12.76,37.54.35,4.09.91,7.86-.06,11.78-.77,14.27-8.36,25.82-19.79,33.85-3.81,2.68-7.58,4.56-12.5,5.24-3.99-1.43-8.28-.67-11.81,1.84l-8.16,5.78Z"/>
    <path class="cls-1" d="M61.27,195.27c-10.5-6.25-3.52-10.55-15.62-16.06l-7.2-3.28c1.01-1.93,4.81-5.47,7.09-3.82l8.33,6.03c7.38.05,14.56.6,21.88-.12,16.94-1.67,30.99-10.64,41.27-23.77,4.81-6.14,15.04-22.38,17.95-29.18.37-.86,2.77-1.37,3.65-.89.82.45,1.32,1.98,1.91,3.24,1.65,3.59,4.09,7.02,4.28,11.07.14,2.97.5,6.24.19,9.15-.66,6.25-2.39,12.57-5.34,18.09-10.46,19.59-36.61,40.64-60.56,36.08-6.21-1.18-12.32-3.25-17.84-6.54Z"/>
    <path class="cls-1" d="M60.26,122.18l-9.2-.65C25.68,119.74.43,60.56,25.1,31.72c5.42-6.34,18.14-17.74,27.25-13.78,5.92-1.23,10.43-4.66,15.38-8.55,1.59,1.61,2.45,6.38-.27,7.95-3.08,1.77-6.89,2.89-9.71,5.31-1.59,1.37-2.22,4.37-3.5,6.11-12.12,16.48-15.14,37.29-7.96,56.55,2.67,7.17,5.89,13.71,9.69,20.36l5.96,10.44c.64,1.12,2.47,2.58,2.17,3.66-.47,1.68-2.13,2.53-3.85,2.41Z"/>
    <path class="cls-1" d="M190.86,102.53l-5.64-10.2c-5.72-10.33-14.01-19.43-24.76-24.77-16.85-8.37-34.91-8.18-53.28-7.79-2.01.04-3.09.94-4.18-1.12-.84-1.59-.41-2.77.98-4.18,4.34-4.41,3.52-11.44,23.79-17.3,7.34-2.12,20.66-1.68,28.09.39,11.33,3.16,22.41,7.19,31.33,14.84,10.72,9.18,15.51,22.06,15.25,35.89-.26,13.35-6.66,10.09-5.91,19.52l.82,10.31c-2.54.26-6.52-1.17-6.71-4.4s2.08-7.84.23-11.18Z"/>
    <path class="cls-1" d="M98.2,148.2l-4.22,6.44c-6.63,10.13-30.13,13.91-44.95,10.78-11.35-2.39-25.16-8.06-34-15.69S.96,130.99.15,118.95c-1.33-19.61,6.83-12.99,5.85-25.54l-.71-8.99c3.05-.54,6.37,1.46,6.59,4.54s-1.8,7.85-.2,10.8l5.55,10.25c5.14,9.49,12.65,17.68,22.02,23.28,14.27,8.52,32.6,9.71,48.94,9.59,3-.02,5.66.72,8.47-.74.86-.45,2.61.69,3.01,1.7.62,1.58-.36,2.68-1.46,4.36Z"/>
    <path class="cls-1" d="M150.75,25.76c-4.77-3.54-3.62-1.05-13.69-1.7-17.94-1.17-34.63,5.64-46.87,18.66-7.93,8.44-13.52,18.21-19.36,28.15-1.36,2.31-2.78,4.07-3.16,6.86-.6.21-2.72.39-3.7.21s-1.31-2.14-1.97-3.23c-2.64-4.36-4.54-8.62-4.52-13.82.02-7.56.73-14.94,4.3-22.02,7.78-15.43,21.26-27.93,36.99-35.14,13.56-6.22,28.64-4.18,41.22,2.74,11.17,6.14,6.32,11.66,14.54,15.56l9.81,4.65c-2.09,2.42-4.42,3.92-6.85,4.1l-6.74-5Z"/>
  </g>
  <g>
    <path class="cls-1" d="M275.08,80.64c0,7.5-5.69,11.82-16.76,11.82h-20.88v-43.77h19.63c10.07,0,15.69,4.25,15.69,11.32,0,4.75-2.44,8.07-5.88,9.75,4.94,1.38,8.19,5.06,8.19,10.88ZM243.69,53.75v14.01h12.82c6.38,0,10-2.38,10-7s-3.63-7-10-7h-12.82ZM268.76,80.14c0-5.06-3.75-7.32-10.69-7.32h-14.38v14.57h14.38c6.94,0,10.69-2.19,10.69-7.25Z"/>
    <path class="cls-1" d="M310.15,72.45v20.01h-5.69v-4.38c-2,3-5.69,4.75-10.88,4.75-7.5,0-12.26-4-12.26-9.75,0-5.31,3.44-9.69,13.32-9.69h9.5v-1.19c0-5.06-2.94-8-8.88-8-3.94,0-7.94,1.38-10.5,3.56l-2.5-4.5c3.44-2.75,8.38-4.25,13.69-4.25,9.07,0,14.19,4.38,14.19,13.44ZM304.15,82.33v-4.63h-9.25c-5.94,0-7.63,2.31-7.63,5.13,0,3.31,2.75,5.38,7.32,5.38s8.07-2.06,9.57-5.88Z"/>
    <path class="cls-1" d="M352.73,73.39v19.07h-6v-18.38c0-6.5-3.25-9.69-8.94-9.69-6.38,0-10.5,3.81-10.5,11v17.07h-6v-33.14h5.75v5c2.44-3.38,6.69-5.31,11.94-5.31,8.07,0,13.76,4.63,13.76,14.38Z"/>
    <path class="cls-1" d="M390.12,72.45v20.01h-5.69v-4.38c-2,3-5.69,4.75-10.88,4.75-7.5,0-12.26-4-12.26-9.75,0-5.31,3.44-9.69,13.32-9.69h9.5v-1.19c0-5.06-2.94-8-8.88-8-3.94,0-7.94,1.38-10.5,3.56l-2.5-4.5c3.44-2.75,8.38-4.25,13.69-4.25,9.07,0,14.19,4.38,14.19,13.44ZM384.12,82.33v-4.63h-9.25c-5.94,0-7.63,2.31-7.63,5.13,0,3.31,2.75,5.38,7.32,5.38s8.07-2.06,9.57-5.88Z"/>
    <path class="cls-1" d="M432.7,73.39v19.07h-6v-18.38c0-6.5-3.25-9.69-8.94-9.69-6.38,0-10.5,3.81-10.5,11v17.07h-6v-33.14h5.75v5c2.44-3.38,6.69-5.31,11.94-5.31,8.07,0,13.76,4.63,13.76,14.38Z"/>
    <path class="cls-1" d="M470.09,72.45v20.01h-5.69v-4.38c-2,3-5.69,4.75-10.88,4.75-7.5,0-12.26-4-12.26-9.75,0-5.31,3.44-9.69,13.32-9.69h9.5v-1.19c0-5.06-2.94-8-8.88-8-3.94,0-7.94,1.38-10.5,3.56l-2.5-4.5c3.44-2.75,8.38-4.25,13.69-4.25,9.07,0,14.19,4.38,14.19,13.44ZM464.09,82.33v-4.63h-9.25c-5.94,0-7.63,2.31-7.63,5.13,0,3.31,2.75,5.38,7.32,5.38s8.07-2.06,9.57-5.88Z"/>
    <path class="cls-1" d="M267.76,145.35h6v17.07c-4.38,3.69-10.44,5.56-16.57,5.56-13.44,0-23.32-9.44-23.32-22.38s9.88-22.39,23.45-22.39c6.94,0,12.82,2.31,16.82,6.75l-3.88,3.88c-3.63-3.5-7.75-5.06-12.69-5.06-10.13,0-17.45,7.07-17.45,16.82s7.32,16.82,17.38,16.82c3.69,0,7.13-.81,10.25-2.81v-14.26Z"/>
    <path class="cls-1" d="M302.65,134.04v5.82c-.5-.06-.94-.06-1.38-.06-6.44,0-10.44,3.94-10.44,11.19v16.51h-6v-33.14h5.75v5.57c2.13-3.88,6.25-5.88,12.07-5.88Z"/>
    <path class="cls-1" d="M306.65,150.92c0-9.88,7.32-16.88,17.26-16.88s17.19,7,17.19,16.88-7.25,16.94-17.19,16.94-17.26-7.07-17.26-16.94ZM335.04,150.92c0-7.07-4.75-11.63-11.13-11.63s-11.19,4.56-11.19,11.63,4.81,11.69,11.19,11.69,11.13-4.63,11.13-11.69Z"/>
    <path class="cls-1" d="M398.63,134.35l-12.38,33.14h-5.75l-9.57-25.14-9.69,25.14h-5.75l-12.32-33.14h5.69l9.63,26.39,10-26.39h5.06l9.82,26.51,9.88-26.51h5.38Z"/>
    <path class="cls-1" d="M424.26,165.55c-1.81,1.56-4.56,2.31-7.25,2.31-6.69,0-10.5-3.69-10.5-10.38v-18.2h-5.63v-4.94h5.63v-7.25h6v7.25h9.5v4.94h-9.5v17.95c0,3.56,1.88,5.57,5.19,5.57,1.75,0,3.44-.56,4.69-1.56l1.88,4.31Z"/>
    <path class="cls-1" d="M462.96,148.42v19.07h-6v-18.38c0-6.5-3.25-9.69-8.94-9.69-6.38,0-10.5,3.81-10.5,11v17.07h-6v-46.4h6v17.95c2.5-3.19,6.63-5,11.69-5,8.07,0,13.76,4.63,13.76,14.38Z"/>
    <path class="cls-1" d="M522.11,145.35h6v17.07c-4.38,3.69-10.44,5.56-16.57,5.56-13.44,0-23.32-9.44-23.32-22.38s9.88-22.39,23.45-22.39c6.94,0,12.82,2.31,16.82,6.75l-3.88,3.88c-3.63-3.5-7.75-5.06-12.69-5.06-10.13,0-17.45,7.07-17.45,16.82s7.32,16.82,17.38,16.82c3.69,0,7.13-.81,10.25-2.81v-14.26Z"/>
    <path class="cls-1" d="M557,134.04v5.82c-.5-.06-.94-.06-1.38-.06-6.44,0-10.44,3.94-10.44,11.19v16.51h-6v-33.14h5.75v5.57c2.13-3.88,6.25-5.88,12.07-5.88Z"/>
    <path class="cls-1" d="M561,150.92c0-9.88,7.32-16.88,17.26-16.88s17.19,7,17.19,16.88-7.25,16.94-17.19,16.94-17.26-7.07-17.26-16.94ZM589.39,150.92c0-7.07-4.75-11.63-11.13-11.63s-11.19,4.56-11.19,11.63,4.81,11.69,11.19,11.69,11.13-4.63,11.13-11.69Z"/>
    <path class="cls-1" d="M634.65,134.35v33.14h-5.69v-5c-2.44,3.44-6.57,5.38-11.26,5.38-8.57,0-14.26-4.69-14.26-14.44v-19.07h6v18.38c0,6.5,3.25,9.75,8.94,9.75,6.25,0,10.25-3.88,10.25-11v-17.13h6Z"/>
    <path class="cls-1" d="M680.42,150.92c0,10.19-7.07,16.94-16.76,16.94-4.69,0-8.82-1.81-11.57-5.38v17.13h-6v-45.27h5.75v5.25c2.69-3.69,6.94-5.57,11.82-5.57,9.69,0,16.76,6.75,16.76,16.88ZM674.36,150.92c0-7-4.81-11.63-11.19-11.63s-11.13,4.63-11.13,11.63,4.81,11.69,11.13,11.69,11.19-4.63,11.19-11.69Z"/>
  </g>
</svg>